<svg xmlns="http://www.w3.org/2000/svg" version="1.1" xmlns:xlink="http://www.w3.org/1999/xlink" width="336.281575614582" height="200" viewBox="0.04000000283122063 11.319999694824219 64.5199966430664 34.31999969482422"><path d="M23.52 24.24L23.52 24.24Q23.52 24.24 25.28 24.12L25.28 24.12Q28.12 24.12 29.50 25.18Q30.88 26.24 30.88 28.18Q30.88 30.12 29.12 32.72Q27.36 35.32 24.56 37.44L24.56 37.44L26.84 37.44Q28.24 37.44 28.80 37.32Q29.36 37.20 29.44 37.20L29.44 37.20Q30 37.20 30 37.80Q30 38.40 29.20 38.44L29.20 38.44Q26.12 38.44 23.28 38.36L23.28 38.36Q18.80 41.20 14.48 41.20L14.48 41.20Q12.44 41.20 11.24 40.44Q10.04 39.68 10.04 38.90Q10.04 38.12 10.70 37.68Q11.36 37.24 12.56 37.24L12.56 37.24Q17.24 37.24 23.04 37.44L23.04 37.44Q25.44 35.48 26.88 32.90Q28.32 30.32 28.32 28.24L28.32 28.24Q28.32 24.92 24.76 24.92L24.76 24.92Q23.36 24.92 21.86 25.36Q20.36 25.80 20.06 25.98Q19.76 26.16 19.68 26.16L19.68 26.16Q19.44 26.16 19.44 25.82Q19.44 25.48 20.48 25L20.48 25Q25.04 22.80 29.40 19.14Q33.76 15.48 33.76 13.92L33.76 13.92Q33.76 13.20 32.64 13.20L32.64 13.20Q28.08 13.24 20.12 20.04L20.12 20.04Q18.52 24.16 14.86 30.16Q11.20 36.16 7.20 40.90Q3.20 45.64 1.24 45.64L1.24 45.64Q0.04 45.64 0.04 44.40L0.04 44.40Q0.04 41.56 5.42 34.28Q10.80 27 17.60 20.88L17.60 20.88Q18.80 17.96 18.80 16.62Q18.80 15.28 18.16 14.50Q17.52 13.72 16.28 13.36L16.28 13.36Q14.32 12.84 12.14 12.84Q9.96 12.84 8.80 12.94Q7.64 13.04 5.98 13.34Q4.32 13.64 3.28 14.38Q2.24 15.12 2.24 16.26Q2.24 17.40 3.36 18.02Q4.48 18.64 6.10 18.88Q7.72 19.12 9.32 19.40Q10.92 19.68 12.04 20.50Q13.16 21.32 13.16 22.80L13.16 22.80Q13.16 23.20 12.98 23.20Q12.80 23.20 12.70 23.08Q12.60 22.96 12.36 22.60L12.36 22.60Q12 22.08 11.30 21.80Q10.60 21.52 9.14 21.26Q7.68 21 6.38 20.70Q5.08 20.40 3.76 19.92Q2.44 19.44 1.64 18.56Q0.84 17.68 0.84 16.50Q0.84 15.32 1.84 14.40Q2.84 13.48 4.48 12.96L4.48 12.96Q7.84 11.96 11.48 11.96L11.48 11.96Q20.92 11.96 20.92 16.92L20.92 16.92Q20.92 17.36 20.72 18.24L20.72 18.24Q28.80 11.72 33.84 11.72L33.84 11.72Q36.08 11.72 36.08 13.08L36.08 13.08Q36.08 15.04 31.98 18.64Q27.88 22.24 23.52 24.24ZM2.24 44.48L2.24 44.48Q3.40 44.48 8.46 37.06Q13.52 29.64 16.56 23.24L16.56 23.24Q10.56 28.96 5.94 35.14Q1.32 41.32 1.32 43.56L1.32 43.56Q1.32 44.48 2.24 44.48ZM21.80 38.32L21.80 38.32L14.56 38.16Q11.48 38.16 11.48 39.08L11.48 39.08Q11.48 39.60 12.52 40.06Q13.56 40.52 14.92 40.52L14.92 40.52Q18.48 40.52 21.80 38.32ZM33.24 40.64L33.24 40.64Q32.44 40.64 32.44 39.84L32.44 39.84Q32.44 37.68 37.30 31.64Q42.16 25.60 47.44 21.24L47.44 21.24Q49.36 17.20 49.36 14.96L49.36 14.96Q49.36 12.28 46.68 12.28L46.68 12.28Q44.16 12.28 40.74 14.80Q37.32 17.32 34.96 20.42Q32.60 23.52 32.60 25.28L32.60 25.28Q32.60 26.56 34.08 26.56L34.08 26.56Q36.20 26.56 38.70 24.40Q41.20 22.24 42.44 20.20L42.44 20.20Q42.88 19.48 43.16 19.48Q43.44 19.48 43.44 19.76Q43.44 20.04 43.28 20.24L43.28 20.24Q41.92 22.28 38.96 24.92Q36 27.56 33.56 27.56Q31.12 27.56 31.12 25.76L31.12 25.76Q31.12 24.20 32.80 21.72Q34.48 19.24 36.90 16.94Q39.32 14.64 42.34 12.98Q45.36 11.32 47.72 11.32L47.72 11.32Q50.80 11.32 50.80 14.36L50.80 14.36Q50.80 16.36 49.36 19.76L49.36 19.76Q53.32 16.84 55.72 16.84L55.72 16.84Q57.16 16.84 57.16 18.36Q57.16 19.88 54.48 24.26Q51.80 28.64 49.12 32.16L49.12 32.16L46.44 35.72Q46.44 35.80 46.48 35.80L46.48 35.80Q48 34.76 51.82 31.24Q55.64 27.72 58.86 25.16Q62.08 22.60 63.64 22.60L63.64 22.60Q64.56 22.60 64.56 23.52Q64.56 24.44 62.16 27.64Q59.76 30.84 57.36 34.20Q54.96 37.56 54.96 38.84Q54.96 40.12 56.04 40.12L56.04 40.12Q57.28 40.12 59.28 38.86Q61.28 37.60 62.08 36.84Q62.88 36.08 63.08 36.08Q63.28 36.08 63.28 36.24L63.28 36.24Q63.28 36.72 61.94 37.88Q60.60 39.04 58.58 40.08Q56.56 41.12 55.12 41.12L55.12 41.12Q53.20 41.12 53.20 39.54Q53.20 37.96 54.54 35.68Q55.88 33.40 57.48 31.44L57.48 31.44Q62.04 26 62.56 24.24L62.56 24.24Q62.56 23.80 62.16 23.80L62.16 23.80Q61.20 23.80 56.24 28.12Q51.28 32.44 48.96 34.68Q46.64 36.92 45.84 37.72Q45.04 38.52 44.60 39Q44.16 39.48 43.72 39.88L43.72 39.88Q42.88 40.64 42.60 40.64L42.60 40.64Q42.56 40.64 42.52 40.60L42.52 40.60Q42.16 40.44 42.16 40.04L42.16 40.04Q42.16 39.04 44.72 35.84L44.72 35.84Q49.24 30.24 52.42 25.20Q55.60 20.16 55.60 18.48L55.60 18.48Q55.60 17.84 54.80 17.84L54.80 17.84Q52.84 17.84 48.64 21.36L48.64 21.36Q45.60 27.60 40.32 34.12Q35.04 40.64 33.24 40.64ZM34.12 39.60L34.12 39.60Q35.16 39.60 39.36 34.14Q43.56 28.68 46.44 23.28L46.44 23.28Q41.88 27.48 37.78 32.58Q33.68 37.68 33.68 39.16L33.68 39.16Q33.68 39.60 34.12 39.60Z" fill="black"></path></svg>